# xmcd
#
# Track frame offsets:
#	150
#	14070
#	25030
#	37595
#	49847
#	63010
#	73807
#	84802
#	98205
#	109685
#
# Disc length: 1641 seconds
#
# Revision: 0
# Processed by: cddbd v1.5.2PL0 Copyright (c) Steve Scherf et al.
# Submitted via: dBpowerAMP V4.0
#
DISCID=7106670a
DTITLE=Ferlin Husky - Country Music Is Here To Stay
DYEAR=1900
DGENRE=Country
TTITLE0=Baby
TTITLE1=Divorce Lawyers, Funeral Directors And Jailers
TTITLE2=Dammit I'm Lonely
TTITLE3=If I Can't Have All Of You (Just Give Me What You Think Is Fair)
TTITLE4=The Mountain Of Everlasting Life
TTITLE5=The Wings Of A Dove
TTITLE6=Gone
TTITLE7=Fallen Star
TTITLE8=I Feel Better All Over (More Than Anywhere's Else)
TTITLE9=(Good Ole) Country Music Is Here To Stay
EXTD=
EXTT0=
EXTT1=
EXTT2=
EXTT3=
EXTT4=
EXTT5=
EXTT6=
EXTT7=
EXTT8=
EXTT9=
PLAYORDER=
